{
  "asset": {
    "version": "2.0",
    "generator": "THREE.GLTFExporter"
  },
  "scenes": [
    {
      "nodes": [
        0
      ]
    }
  ],
  "scene": 0,
  "nodes": [
    {
      "children": [
        17
      ],
      "matrix": [
        0.01,
        0,
        0,
        0,
        0,
        0.01,
        0,
        0,
        0,
        0,
        0.01,
        0,
        0,
        0,
        0,
        1
      ]
    },
    {
      "matrix": [
        -0.006909720925756924,
        0.7070899008459702,
        -0.7070899008459703,
        0,
        -0.9999761275934181,
        -0.004885910522709258,
        0.004885910522709258,
        0,
        -5.551115123125783e-17,
        0.7071067811865476,
        0.7071067811865475,
        0,
        -6.680928065184247,
        66.11880720792331,
        -4.117690183094552,
        1
      ],
      "name": "Grain",
      "mesh": 0
    },
    {
      "matrix": [
        -8.881784197001252e-16,
        -6.106226635438361e-16,
        0.9999999999999999,
        0,
        -0.9740956469428128,
        0.22613639823580534,
        -9.43689570931383e-16,
        0,
        -0.22613639823580522,
        -0.9740956469428128,
        -6.661338147750939e-16,
        0,
        6.802746875296037,
        66.13619800201992,
        -0.2408705997295233,
        1
      ],
      "name": "Grain",
      "mesh": 1
    },
    {
      "matrix": [
        0.614496645045179,
        -0.6384063424581331,
        0.46349888364207326,
        0,
        0.3306867953377677,
        -0.3249735607704438,
        -0.8860239433499618,
        0,
        0.7162681876346713,
        0.6977317010924814,
        0.011417384688962029,
        0,
        3.467396663789805,
        64.61148990590853,
        -11.811475395012605,
        1
      ],
      "name": "Grain",
      "mesh": 2
    },
    {
      "matrix": [
        1,
        0,
        0,
        0,
        0,
        -0.06123725749117881,
        0.998123238029733,
        0,
        0,
        -0.998123238029733,
        -0.06123725749117881,
        0,
        -8.472315627240448,
        65.62701021117003,
        7.5000000000000036,
        1
      ],
      "name": "Grain",
      "mesh": 3
    },
    {
      "matrix": [
        -0.04955039309860343,
        0.9975417370153229,
        0.049550393098603374,
        0,
        -0.7053685267601425,
        -0.07007483794096303,
        0.7053685267601425,
        0,
        0.7071067811865475,
        0,
        0.7071067811865476,
        0,
        3.5436226803503477,
        65.67972626959194,
        9.539190302861876,
        1
      ],
      "name": "Grain",
      "mesh": 4
    },
    {
      "matrix": [
        1,
        0,
        0,
        0,
        0,
        5.551115123125783e-17,
        -0.9999999999999999,
        0,
        0,
        0.9999999999999999,
        5.551115123125783e-17,
        0,
        0,
        46.561062248634684,
        2.904166532485595e-15,
        1
      ],
      "name": "Grains",
      "mesh": 5
    },
    {
      "matrix": [
        1,
        0,
        0,
        0,
        0,
        0.7071067811865475,
        -0.7071067811865476,
        0,
        0,
        0.7071067811865476,
        0.7071067811865475,
        0,
        26.484066392641417,
        24.40039123514923,
        -7.500000000000002,
        1
      ],
      "name": "Logo",
      "mesh": 6
    },
    {
      "matrix": [
        1,
        0,
        0,
        0,
        0,
        0.7071067811865475,
        0.7071067811865476,
        0,
        0,
        -0.7071067811865476,
        0.7071067811865475,
        0,
        26.484066392641413,
        24.40039123514923,
        7.500000000000002,
        1
      ],
      "name": "Logo",
      "mesh": 7
    },
    {
      "matrix": [
        1,
        0,
        0,
        0,
        0,
        0.7071067811865475,
        -0.7071067811865476,
        0,
        0,
        0.7071067811865476,
        0.7071067811865475,
        0,
        26.484066392641413,
        33.73696004979969,
        -7.499999999999998,
        1
      ],
      "name": "Logo",
      "mesh": 8
    },
    {
      "matrix": [
        1,
        0,
        0,
        0,
        0,
        0.7071067811865475,
        0.7071067811865476,
        0,
        0,
        -0.7071067811865476,
        0.7071067811865475,
        0,
        26.48406639264141,
        33.73696004979969,
        7.5,
        1
      ],
      "name": "Logo",
      "mesh": 9
    },
    {
      "matrix": [
        1,
        0,
        0,
        0,
        0,
        1,
        0,
        0,
        0,
        0,
        1,
        0,
        26.48406639264141,
        40,
        0,
        1
      ],
      "name": "Logo",
      "mesh": 10
    },
    {
      "matrix": [
        2.220446049250313e-16,
        0,
        -1,
        0,
        0,
        1,
        0,
        0,
        1,
        0,
        2.220446049250313e-16,
        0,
        22.116656615398817,
        31.62699552493723,
        5.218048215738236e-15,
        1
      ],
      "name": "Boarder",
      "mesh": 11
    },
    {
      "matrix": [
        1,
        0,
        0,
        0,
        0,
        1,
        0,
        0,
        0,
        0,
        1,
        0,
        0,
        32.4774952007756,
        0,
        1
      ],
      "name": "Sack",
      "mesh": 12
    },
    {
      "matrix": [
        0.046234581534966554,
        -0.22681335082903434,
        -0.9728402064861381,
        0,
        -0.9798496179743764,
        -0.1997366419950748,
        0,
        0,
        -0.1943118360413364,
        0.9532371046755559,
        -0.2314777152211592,
        0,
        0,
        0,
        0,
        1
      ],
      "name": "Directional Light",
      "extensions": {
        "KHR_lights_punctual": {
          "light": 0
        }
      }
    },
    {
      "matrix": [
        0.7071067811865477,
        -2.7755575615628914e-17,
        -0.7071067811865474,
        0,
        -0.408248290463863,
        0.816496580927726,
        -0.40824829046386313,
        0,
        0.5773502691896256,
        0.5773502691896258,
        0.5773502691896258,
        0,
        575.0185336855191,
        624.7284768226626,
        583.0381474420733,
        1
      ],
      "camera": 0
    },
    {
      "matrix": [
        1,
        0,
        0,
        0,
        0,
        1,
        0,
        0,
        0,
        0,
        1,
        0,
        0,
        1,
        0,
        1
      ],
      "name": "Default Ambient Light"
    },
    {
      "name": "Scene 1",
      "children": [
        1,
        2,
        3,
        4,
        5,
        6,
        7,
        8,
        9,
        10,
        11,
        12,
        13,
        14,
        15,
        16
      ]
    }
  ],
  "bufferViews": [
    {
      "buffer": 0,
      "byteOffset": 0,
      "byteLength": 8712,
      "target": 34962,
      "byteStride": 12
    },
    {
      "buffer": 0,
      "byteOffset": 8712,
      "byteLength": 8712,
      "target": 34962,
      "byteStride": 12
    },
    {
      "buffer": 0,
      "byteOffset": 17424,
      "byteLength": 5808,
      "target": 34962,
      "byteStride": 8
    },
    {
      "buffer": 0,
      "byteOffset": 23232,
      "byteLength": 7488,
      "target": 34963
    },
    {
      "buffer": 0,
      "byteOffset": 30720,
      "byteLength": 8712,
      "target": 34962,
      "byteStride": 12
    },
    {
      "buffer": 0,
      "byteOffset": 39432,
      "byteLength": 8712,
      "target": 34962,
      "byteStride": 12
    },
    {
      "buffer": 0,
      "byteOffset": 48144,
      "byteLength": 5808,
      "target": 34962,
      "byteStride": 8
    },
    {
      "buffer": 0,
      "byteOffset": 53952,
      "byteLength": 7488,
      "target": 34963
    },
    {
      "buffer": 0,
      "byteOffset": 61440,
      "byteLength": 7200,
      "target": 34962,
      "byteStride": 12
    },
    {
      "buffer": 0,
      "byteOffset": 68640,
      "byteLength": 7200,
      "target": 34962,
      "byteStride": 12
    },
    {
      "buffer": 0,
      "byteOffset": 75840,
      "byteLength": 4800,
      "target": 34962,
      "byteStride": 8
    },
    {
      "buffer": 0,
      "byteOffset": 80640,
      "byteLength": 4296,
      "target": 34963
    },
    {
      "buffer": 0,
      "byteOffset": 84936,
      "byteLength": 7200,
      "target": 34962,
      "byteStride": 12
    },
    {
      "buffer": 0,
      "byteOffset": 92136,
      "byteLength": 7200,
      "target": 34962,
      "byteStride": 12
    },
    {
      "buffer": 0,
      "byteOffset": 99336,
      "byteLength": 4800,
      "target": 34962,
      "byteStride": 8
    },
    {
      "buffer": 0,
      "byteOffset": 104136,
      "byteLength": 4296,
      "target": 34963
    },
    {
      "buffer": 0,
      "byteOffset": 108432,
      "byteLength": 93312,
      "target": 34962,
      "byteStride": 12
    },
    {
      "buffer": 0,
      "byteOffset": 201744,
      "byteLength": 93312,
      "target": 34962,
      "byteStride": 12
    },
    {
      "buffer": 0,
      "byteOffset": 295056,
      "byteLength": 46656,
      "target": 34963
    }
  ],
  "buffers": [
    {
      "byteLength": 341712,
      "uri": "data:application/octet-stream;base64,"
    }
  ],
  "accessors": [
    {
      "bufferView": 0,
      "componentType": 5126,
      "count": 726,
      "max": [
        4.246089935302734,
        6.25,
        3.5384082794189453
      ],
      "min": [
        -4.246089935302734,
        -6.25,
        -3.5384082794189453
      ],
      "type": "VEC3"
    },
    {
      "bufferView": 1,
      "componentType": 5126,
      "count": 726,
      "max": [
        0.9999204277992249,
        1,
        0.9999447464942932
      ],
      "min": [
        -0.9999204277992249,
        -1,
        -0.9999447464942932
      ],
      "type": "VEC3"
    },
    {
      "bufferView": 2,
      "componentType": 5126,
      "count": 726,
      "max": [
        1,
        1
      ],
      "min": [
        0,
        0
      ],
      "type": "VEC2"
    },
    {
      "bufferView": 3,
      "componentType": 5123,
      "count": 3744,
      "max": [
        724
      ],
      "min": [
        0
      ],
      "type": "SCALAR"
    },
    {
      "bufferView": 4,
      "componentType": 5126,
      "count": 726,
      "max": [
        4.246089935302734,
        6.25,
        3.5384082794189453
      ],
      "min": [
        -4.246089935302734,
        -6.25,
        -3.5384082794189453
      ],
      "type": "VEC3"
    },
    {
      "bufferView": 5,
      "componentType": 5126,
      "count": 726,
      "max": [
        0.9999204277992249,
        1,
        0.9999447464942932
      ],
      "min": [
        -0.9999204277992249,
        -1,
        -0.9999447464942932
      ],
      "type": "VEC3"
    },
    {
      "bufferView": 6,
      "componentType": 5126,
      "count": 726,
      "max": [
        1,
        1
      ],
      "min": [
        0,
        0
      ],
      "type": "VEC2"
    },
    {
      "bufferView": 7,
      "componentType": 5123,
      "count": 3744,
      "max": [
        724
      ],
      "min": [
        0
      ],
      "type": "SCALAR"
    },
    {
      "bufferView": 8,
      "componentType": 5126,
      "count": 600,
      "max": [
        21.25,
        21.25,
        21.25
      ],
      "min": [
        -21.25,
        -21.25,
        -21.25
      ],
      "type": "VEC3"
    },
    {
      "bufferView": 9,
      "componentType": 5126,
      "count": 600,
      "max": [
        1,
        1,
        1
      ],
      "min": [
        -1,
        -1,
        -1
      ],
      "type": "VEC3"
    },
    {
      "bufferView": 10,
      "componentType": 5126,
      "count": 600,
      "max": [
        1,
        1
      ],
      "min": [
        0,
        0
      ],
      "type": "VEC2"
    },
    {
      "bufferView": 11,
      "componentType": 5123,
      "count": 2148,
      "max": [
        599
      ],
      "min": [
        0
      ],
      "type": "SCALAR"
    },
    {
      "bufferView": 12,
      "componentType": 5126,
      "count": 600,
      "max": [
        20,
        20,
        5
      ],
      "min": [
        -20,
        -20,
        -5
      ],
      "type": "VEC3"
    },
    {
      "bufferView": 13,
      "componentType": 5126,
      "count": 600,
      "max": [
        1,
        1,
        1
      ],
      "min": [
        -1,
        -1,
        -1
      ],
      "type": "VEC3"
    },
    {
      "bufferView": 14,
      "componentType": 5126,
      "count": 600,
      "max": [
        1,
        1
      ],
      "min": [
        0,
        0
      ],
      "type": "VEC2"
    },
    {
      "bufferView": 15,
      "componentType": 5123,
      "count": 2148,
      "max": [
        599
      ],
      "min": [
        0
      ],
      "type": "SCALAR"
    },
    {
      "bufferView": 16,
      "componentType": 5126,
      "count": 7776,
      "max": [
        25,
        32.19453430175781,
        25
      ],
      "min": [
        -25,
        -32.5,
        -25
      ],
      "type": "VEC3"
    },
    {
      "bufferView": 17,
      "componentType": 5126,
      "count": 7776,
      "max": [
        1,
        1,
        1
      ],
      "min": [
        -1,
        -1,
        -1
      ],
      "type": "VEC3"
    },
    {
      "bufferView": 18,
      "componentType": 5125,
      "count": 11664,
      "max": [
        7775
      ],
      "min": [
        0
      ],
      "type": "SCALAR"
    }
  ],
  "meshes": [
    {
      "primitives": [
        {
          "mode": 4,
          "attributes": {
            "POSITION": 0,
            "NORMAL": 1,
            "TEXCOORD_0": 2
          },
          "extras": {
            "parameters": {
              "width": 15,
              "radialSegments": 32,
              "heightSegments": 8,
              "openEnded": false,
              "thetaStart": 0,
              "thetaLength": 360,
              "cornerRadiusTop": 0,
              "cornerRadiusBottom": 10,
              "cornerSegments": 8,
              "depth": 12.5,
              "height": 12.5,
              "type": "ConeGeometry"
            },
            "type": "ConeGeometry"
          },
          "indices": 3,
          "material" : 0
        }
      ]
    },
    {
      "primitives": [
        {
          "mode": 4,
          "attributes": {
            "POSITION": 0,
            "NORMAL": 1,
            "TEXCOORD_0": 2
          },
          "extras": {
            "parameters": {
              "width": 15,
              "radialSegments": 32,
              "heightSegments": 8,
              "openEnded": false,
              "thetaStart": 0,
              "thetaLength": 360,
              "cornerRadiusTop": 0,
              "cornerRadiusBottom": 10,
              "cornerSegments": 8,
              "depth": 12.5,
              "height": 12.5,
              "type": "ConeGeometry"
            },
            "type": "ConeGeometry"
          },
          "indices": 3,
          "material" : 0
        }
      ]
    },
    {
      "primitives": [
        {
          "mode": 4,
          "attributes": {
            "POSITION": 4,
            "NORMAL": 5,
            "TEXCOORD_0": 6
          },
          "extras": {
            "parameters": {
              "width": 15,
              "radialSegments": 32,
              "heightSegments": 8,
              "openEnded": false,
              "thetaStart": 0,
              "thetaLength": 360,
              "cornerRadiusTop": 0,
              "cornerRadiusBottom": 10,
              "cornerSegments": 8,
              "depth": 12.5,
              "height": 12.5,
              "type": "ConeGeometry"
            },
            "type": "ConeGeometry"
          },
          "indices": 7,
          "material" : 0
        }
      ]
    },
    {
      "primitives": [
        {
          "mode": 4,
          "attributes": {
            "POSITION": 0,
            "NORMAL": 1,
            "TEXCOORD_0": 2
          },
          "extras": {
            "parameters": {
              "width": 15,
              "radialSegments": 32,
              "heightSegments": 8,
              "openEnded": false,
              "thetaStart": 0,
              "thetaLength": 360,
              "cornerRadiusTop": 0,
              "cornerRadiusBottom": 10,
              "cornerSegments": 8,
              "depth": 12.5,
              "height": 12.5,
              "type": "ConeGeometry"
            },
            "type": "ConeGeometry"
          },
          "indices": 3,
          "material" : 0
        }
      ]
    },
    {
      "primitives": [
        {
          "mode": 4,
          "attributes": {
            "POSITION": 0,
            "NORMAL": 1,
            "TEXCOORD_0": 2
          },
          "extras": {
            "parameters": {
              "width": 15,
              "radialSegments": 32,
              "heightSegments": 8,
              "openEnded": false,
              "thetaStart": 0,
              "thetaLength": 360,
              "cornerRadiusTop": 0,
              "cornerRadiusBottom": 10,
              "cornerSegments": 8,
              "depth": 12.5,
              "height": 12.5,
              "type": "ConeGeometry"
            },
            "type": "ConeGeometry"
          },
          "indices": 3,
          "material" : 0
        }
      ]
    },
    {
      "primitives": [
        {
          "mode": 4,
          "attributes": {
            "POSITION": 8,
            "NORMAL": 9,
            "TEXCOORD_0": 10
          },
          "extras": {
            "parameters": {
              "width": 42.5,
              "widthSegments": 1,
              "heightSegments": 1,
              "depthSegments": 1,
              "cornerRadius": 15,
              "cornerSegments": 8,
              "height": 42.5,
              "depth": 42.5,
              "type": "CubeGeometry"
            },
            "type": "CubeGeometry"
          },
          "indices": 11,
          "material" : 0
        }
      ]
    },
    {
      "primitives": [
        {
          "mode": 4,
          "attributes": {
            "POSITION": 0,
            "NORMAL": 1,
            "TEXCOORD_0": 2
          },
          "extras": {
            "parameters": {
              "width": 15,
              "radialSegments": 32,
              "heightSegments": 8,
              "openEnded": false,
              "thetaStart": 0,
              "thetaLength": 360,
              "cornerRadiusTop": 0,
              "cornerRadiusBottom": 10,
              "cornerSegments": 8,
              "depth": 12.5,
              "height": 12.5,
              "type": "ConeGeometry"
            },
            "type": "ConeGeometry"
          },
          "indices": 3,
          "material" : 1
        }
      ]
    },
    {
      "primitives": [
        {
          "mode": 4,
          "attributes": {
            "POSITION": 0,
            "NORMAL": 1,
            "TEXCOORD_0": 2
          },
          "extras": {
            "parameters": {
              "width": 15,
              "radialSegments": 32,
              "heightSegments": 8,
              "openEnded": false,
              "thetaStart": 0,
              "thetaLength": 360,
              "cornerRadiusTop": 0,
              "cornerRadiusBottom": 10,
              "cornerSegments": 8,
              "depth": 12.5,
              "height": 12.5,
              "type": "ConeGeometry"
            },
            "type": "ConeGeometry"
          },
          "indices": 3,
          "material" : 1
        }
      ]
    },
    {
      "primitives": [
        {
          "mode": 4,
          "attributes": {
            "POSITION": 0,
            "NORMAL": 1,
            "TEXCOORD_0": 2
          },
          "extras": {
            "parameters": {
              "width": 15,
              "radialSegments": 32,
              "heightSegments": 8,
              "openEnded": false,
              "thetaStart": 0,
              "thetaLength": 360,
              "cornerRadiusTop": 0,
              "cornerRadiusBottom": 10,
              "cornerSegments": 8,
              "depth": 12.5,
              "height": 12.5,
              "type": "ConeGeometry"
            },
            "type": "ConeGeometry"
          },
          "indices": 3,
          "material" : 1
        }
      ]
    },
    {
      "primitives": [
        {
          "mode": 4,
          "attributes": {
            "POSITION": 0,
            "NORMAL": 1,
            "TEXCOORD_0": 2
          },
          "extras": {
            "parameters": {
              "width": 15,
              "radialSegments": 32,
              "heightSegments": 8,
              "openEnded": false,
              "thetaStart": 0,
              "thetaLength": 360,
              "cornerRadiusTop": 0,
              "cornerRadiusBottom": 10,
              "cornerSegments": 8,
              "depth": 12.5,
              "height": 12.5,
              "type": "ConeGeometry"
            },
            "type": "ConeGeometry"
          },
          "indices": 3,
          "material" : 1
        }
      ]
    },
    {
      "primitives": [
        {
          "mode": 4,
          "attributes": {
            "POSITION": 0,
            "NORMAL": 1,
            "TEXCOORD_0": 2
          },
          "extras": {
            "parameters": {
              "width": 15,
              "radialSegments": 32,
              "heightSegments": 8,
              "openEnded": false,
              "thetaStart": 0,
              "thetaLength": 360,
              "cornerRadiusTop": 0,
              "cornerRadiusBottom": 10,
              "cornerSegments": 8,
              "depth": 12.5,
              "height": 12.5,
              "type": "ConeGeometry"
            },
            "type": "ConeGeometry"
          },
          "indices": 3,
          "material" : 1
        }
      ]
    },
    {
      "primitives": [
        {
          "mode": 4,
          "attributes": {
            "POSITION": 12,
            "NORMAL": 13,
            "TEXCOORD_0": 14
          },
          "extras": {
            "parameters": {
              "width": 40,
              "widthSegments": 1,
              "heightSegments": 1,
              "depthSegments": 1,
              "cornerRadius": 8,
              "cornerSegments": 8,
              "height": 40,
              "depth": 10,
              "type": "CubeGeometry"
            },
            "type": "CubeGeometry"
          },
          "indices": 15,
          "material" : 2
        }
      ]
    },
    {
      "primitives": [
        {
          "mode": 4,
          "attributes": {
            "POSITION": 16,
            "NORMAL": 17
          },
          "extras": {
            "type": "SubdivGeometry",
            "parameters": {
              "width": 50,
              "height": 64.84628295898438,
              "depth": 50
            }
          },
          "indices": 18,
          "material" : 3
        }
      ]
    }
  ],
  "materials": [
  {
    "name": "LightTan",
    "pbrMetallicRoughness": {
      "baseColorFactor": [0.835, 0.63, 0.48, 1.0],
      "metallicFactor": 0.1,
      "roughnessFactor": 0.85
    }
  },
  {
    "name": "Black",
    "pbrMetallicRoughness": {
      "baseColorFactor": [0.14, 0.14, 0.16, 1.0],
      "metallicFactor": 0.1,
      "roughnessFactor": 0.9
    }
  },
  {
    "name": "DarkGrey",
    "pbrMetallicRoughness": {
      "baseColorFactor": [0.52, 0.46, 0.41, 1.0],
      "metallicFactor": 0.1,
      "roughnessFactor": 0.85
    }
  },
  {
    "name": "PaleBrown",
    "pbrMetallicRoughness": {
      "baseColorFactor": [0.42, 0.33, 0.25, 1.0],
      "metallicFactor": 0.1,
      "roughnessFactor": 0.85
    }
  }
],
"extensions": {
    "KHR_lights_punctual": {
      "lights": [
        {
          "name": "Directional Light",
          "color": [
            1,
            1,
            1
          ],
          "intensity": 0.0,
          "type": "directional"
        }
      ]
    }
  },
  "cameras": [
    {
      "type": "orthographic",
      "orthographic": {
        "xmag": 1.897344680153344,
        "ymag": 1.007964361331464,
        "zfar": 100000,
        "znear": 0
      }
    }
  ],
  "extensionsUsed": [
    "KHR_lights_punctual"
  ]
}