<?xml version="1.0" standalone="no"?>
<svg xmlns="http://www.w3.org/2000/svg" xmlns:xlink="http://www.w3.org/1999/xlink" width="1044pt" height="1354pt" viewBox="0.00 0.00 1044.21 1354.40">
<g id="graph0" class="graph" transform="translate(53.60436032987951,1275.0777815755807) scale(0.8705505632961255)" data-name="S">

<polygon fill="white" stroke="none" points="-4,4 -4,-1350.4 1040.21,-1350.4 1040.21,4 -4,4" style=""/>
<!-- 0 -->
<g id="node1" class="node" pointer-events="visible" data-name="0">

<polygon fill="none" stroke="black" points="837.82,-1346.2 774.18,-1346.2 774.18,-1305 837.82,-1305 837.82,-1346.2" style=""/>
<text text-anchor="middle" x="806" y="-1329.8" font-family="Times,serif" font-size="14.00" style="">0</text>
<text text-anchor="middle" x="806" y="-1313" font-family="Times,serif" font-size="14.00" style="">(0,0,0,0)</text>
</g>
<!-- n0_0 -->
<g id="node2" class="node" pointer-events="visible" data-name="n0_0">

<ellipse fill="black" stroke="black" cx="136" cy="-1208.8" rx="3.6" ry="3.6" style=""/>
</g>
<!-- 0&#45;&gt;n0_0 -->
<g id="edge1" class="edge" data-name="0-&gt;n0_0">

<path fill="none" stroke="black" d="M773.68,-1319.06C646.38,-1297.25 184.32,-1218.08 139.5,-1210.4" style=""/>
<text text-anchor="middle" x="622.88" y="-1274.2" font-family="Times,serif" font-size="14.00" style="">0:move_grain</text>
</g>
<!-- n0_1 -->
<g id="node4" class="node" pointer-events="visible" data-name="n0_1">

<ellipse fill="black" stroke="black" cx="966" cy="-1114.4" rx="3.6" ry="3.6" style=""/>
</g>
<!-- 0&#45;&gt;n0_1 -->
<g id="edge3" class="edge" data-name="0-&gt;n0_1">

<path fill="none" stroke="black" d="M837.98,-1318.59C858.1,-1313.3 883.33,-1303.71 900,-1286.8 906.6,-1280.1 957.12,-1140.09 964.98,-1118.25" style=""/>
<text text-anchor="middle" x="955.83" y="-1239.4" font-family="Times,serif" font-size="14.00" style="">1:move_fox</text>
</g>
<!-- n0_2 -->
<g id="node6" class="node" pointer-events="visible" data-name="n0_2">

<ellipse fill="black" stroke="black" cx="808" cy="-1243.6" rx="3.6" ry="3.6" style=""/>
</g>
<!-- 0&#45;&gt;n0_2 -->
<g id="edge5" class="edge" data-name="0-&gt;n0_2">

<path fill="none" stroke="black" d="M806.49,-1304.82C806.98,-1285.21 807.7,-1256.78 807.93,-1247.59" style=""/>
<text text-anchor="middle" x="854.26" y="-1274.2" font-family="Times,serif" font-size="14.00" style="">2:move_chicken</text>
</g>
<!-- n0_3 -->
<g id="node8" class="node" pointer-events="visible" data-name="n0_3">

<ellipse fill="black" stroke="black" cx="1003" cy="-1243.6" rx="3.6" ry="3.6" style=""/>
</g>
<!-- 0&#45;&gt;n0_3 -->
<g id="edge7" class="edge" data-name="0-&gt;n0_3">

<path fill="none" stroke="black" d="M838.26,-1316.61C863.25,-1309.95 898.47,-1299.51 928,-1286.8 957.64,-1274.04 990.66,-1252.77 1000.25,-1246.43" style=""/>
<text text-anchor="middle" x="998.1" y="-1274.2" font-family="Times,serif" font-size="14.00" style="">3:move_none</text>
</g>
<!-- 9 -->
<g id="node3" class="node" pointer-events="visible" data-name="9">

<polygon fill="none" stroke="black" points="191.82,-564.6 128.18,-564.6 128.18,-523.4 191.82,-523.4 191.82,-564.6" style=""/>
<text text-anchor="middle" x="160" y="-548.2" font-family="Times,serif" font-size="14.00" style="">9</text>
<text text-anchor="middle" x="160" y="-531.4" font-family="Times,serif" font-size="14.00" style="">(1,0,0,1)</text>
</g>
<!-- n0_0&#45;&gt;9 -->
<g id="edge2" class="edge" data-name="n0_0-&gt;9">

<path fill="none" stroke="black" d="M132.36,-1207.22C110.73,-1203.51 0,-1181.34 0,-1115.4 0,-1115.4 0,-1115.4 0,-620.2 0,-568.45 69.4,-552.25 116.78,-547.22" style=""/>
<polygon fill="black" stroke="black" points="116.86,-550.72 126.5,-546.32 116.22,-543.75 116.86,-550.72" style=""/>
<text text-anchor="middle" x="3.5" y="-895.8" font-family="Times,serif" font-size="14.00" style="">1</text>
</g>
<!-- n9_0 -->
<g id="node36" class="node" pointer-events="visible" data-name="n9_0">

<ellipse fill="black" stroke="black" cx="160" cy="-466.8" rx="3.6" ry="3.6" style=""/>
</g>
<!-- 9&#45;&gt;n9_0 -->
<g id="edge39" class="edge" data-name="9-&gt;n9_0">

<path fill="none" stroke="black" d="M148.3,-523.15C143.65,-512.73 140.22,-499.8 144.11,-488.4 146.79,-480.53 153.83,-473.33 157.57,-469.91" style=""/>
<text text-anchor="middle" x="150.44" y="-492.6" font-family="Times,serif" font-size="14.00" style="">0:</text>
</g>
<!-- 10 -->
<g id="node5" class="node" pointer-events="visible" data-name="10">

<polygon fill="none" stroke="black" points="985.82,-255.8 922.18,-255.8 922.18,-214.6 985.82,-214.6 985.82,-255.8" style=""/>
<text text-anchor="middle" x="954" y="-239.4" font-family="Times,serif" font-size="14.00" style="">10</text>
<text text-anchor="middle" x="954" y="-222.6" font-family="Times,serif" font-size="14.00" style="">(1,0,1,0)</text>
</g>
<!-- n0_1&#45;&gt;10 -->
<g id="edge4" class="edge" data-name="n0_1-&gt;10">

<path fill="none" stroke="black" d="M967.41,-1110.83C971.66,-1102.86 984,-1077.75 984,-1055.4 984,-1055.4 984,-1055.4 984,-311.4 984,-295.76 978.33,-279.51 971.93,-266.14" style=""/>
<polygon fill="black" stroke="black" points="975.13,-264.71 967.42,-257.44 968.91,-267.93 975.13,-264.71" style=""/>
<text text-anchor="middle" x="987.5" y="-694.2" font-family="Times,serif" font-size="14.00" style="">1</text>
</g>
<!-- n10_0 -->
<g id="node37" class="node" pointer-events="visible" data-name="n10_0">

<ellipse fill="black" stroke="black" cx="954" cy="-158" rx="3.6" ry="3.6" style=""/>
</g>
<!-- 10&#45;&gt;n10_0 -->
<g id="edge41" class="edge" data-name="10-&gt;n10_0">

<path fill="none" stroke="black" d="M942.3,-214.35C937.65,-203.93 934.22,-191 938.11,-179.6 940.79,-171.73 947.83,-164.53 951.57,-161.11" style=""/>
<text text-anchor="middle" x="944.44" y="-183.8" font-family="Times,serif" font-size="14.00" style="">0:</text>
</g>
<!-- 12 -->
<g id="node7" class="node" pointer-events="visible" data-name="12">

<polygon fill="none" stroke="black" points="867.82,-1182.2 804.18,-1182.2 804.18,-1141 867.82,-1141 867.82,-1182.2" style=""/>
<text text-anchor="middle" x="836" y="-1165.8" font-family="Times,serif" font-size="14.00" style="">12</text>
<text text-anchor="middle" x="836" y="-1149" font-family="Times,serif" font-size="14.00" style="">(1,1,0,0)</text>
</g>
<!-- n0_2&#45;&gt;12 -->
<g id="edge6" class="edge" data-name="n0_2-&gt;12">

<path fill="none" stroke="black" d="M808.93,-1239.94C811.48,-1232.66 818.79,-1211.77 825.17,-1193.54" style=""/>
<polygon fill="black" stroke="black" points="828.48,-1194.69 828.48,-1184.1 821.87,-1192.38 828.48,-1194.69" style=""/>
<text text-anchor="middle" x="825.5" y="-1204.6" font-family="Times,serif" font-size="14.00" style="">1</text>
</g>
<!-- n12_0 -->
<g id="node41" class="node" pointer-events="visible" data-name="n12_0">

<ellipse fill="black" stroke="black" cx="705" cy="-1084.4" rx="3.6" ry="3.6" style=""/>
</g>
<!-- 12&#45;&gt;n12_0 -->
<g id="edge49" class="edge" data-name="12-&gt;n12_0">

<path fill="none" stroke="black" d="M803.83,-1156.58C779.32,-1152.04 746.06,-1142.53 723.48,-1122.8 712.35,-1113.08 707.22,-1095.1 705.6,-1088.2" style=""/>
<text text-anchor="middle" x="770.26" y="-1110.2" font-family="Times,serif" font-size="14.00" style="">0:move_chicken</text>
</g>
<!-- n12_1 -->
<g id="node42" class="node" pointer-events="visible" data-name="n12_1">

<ellipse fill="black" stroke="black" cx="813" cy="-1084.4" rx="3.6" ry="3.6" style=""/>
</g>
<!-- 12&#45;&gt;n12_1 -->
<g id="edge51" class="edge" data-name="12-&gt;n12_1">

<path fill="none" stroke="black" d="M829.96,-1140.84C824.31,-1122.39 816.39,-1096.48 813.83,-1088.12" style=""/>
<text text-anchor="middle" x="862.1" y="-1110.2" font-family="Times,serif" font-size="14.00" style="">1:move_none</text>
</g>
<!-- 8 -->
<g id="node9" class="node" pointer-events="visible" data-name="8">

<polygon fill="none" stroke="black" points="1034.82,-1182.2 971.18,-1182.2 971.18,-1141 1034.82,-1141 1034.82,-1182.2" style=""/>
<text text-anchor="middle" x="1003" y="-1165.8" font-family="Times,serif" font-size="14.00" style="">8</text>
<text text-anchor="middle" x="1003" y="-1149" font-family="Times,serif" font-size="14.00" style="">(1,0,0,0)</text>
</g>
<!-- n0_3&#45;&gt;8 -->
<g id="edge8" class="edge" data-name="n0_3-&gt;8">

<path fill="none" stroke="black" d="M1003,-1239.56C1003,-1232.01 1003,-1211.72 1003,-1193.87" style=""/>
<polygon fill="black" stroke="black" points="1006.5,-1193.88 1003,-1183.88 999.5,-1193.88 1006.5,-1193.88" style=""/>
<text text-anchor="middle" x="1006.5" y="-1204.6" font-family="Times,serif" font-size="14.00" style="">1</text>
</g>
<!-- n8_0 -->
<g id="node35" class="node" pointer-events="visible" data-name="n8_0">

<ellipse fill="black" stroke="black" cx="1025" cy="-1084.4" rx="3.6" ry="3.6" style=""/>
</g>
<!-- 8&#45;&gt;n8_0 -->
<g id="edge37" class="edge" data-name="8-&gt;n8_0">

<path fill="none" stroke="black" d="M999.33,-1140.62C998.27,-1129.93 998.44,-1116.79 1003.11,-1106 1007.01,-1097 1016.99,-1090.11 1022.01,-1087.08" style=""/>
<text text-anchor="middle" x="1009.44" y="-1110.2" font-family="Times,serif" font-size="14.00" style="">0:</text>
</g>
<!-- 1 -->
<g id="node10" class="node" pointer-events="visible" data-name="1">

<polygon fill="none" stroke="black" points="484.82,-719 421.18,-719 421.18,-677.8 484.82,-677.8 484.82,-719" style=""/>
<text text-anchor="middle" x="453" y="-702.6" font-family="Times,serif" font-size="14.00" style="">1</text>
<text text-anchor="middle" x="453" y="-685.8" font-family="Times,serif" font-size="14.00" style="">(0,0,0,1)</text>
</g>
<!-- n1_0 -->
<g id="node11" class="node" pointer-events="visible" data-name="n1_0">

<ellipse fill="black" stroke="black" cx="512" cy="-621.2" rx="3.6" ry="3.6" style=""/>
</g>
<!-- 1&#45;&gt;n1_0 -->
<g id="edge9" class="edge" data-name="1-&gt;n1_0">

<path fill="none" stroke="black" d="M485.02,-686.13C496.94,-680.19 509.21,-671.59 516,-659.6 522.56,-648.01 516.13,-631.14 513.24,-624.77" style=""/>
<text text-anchor="middle" x="552.83" y="-647" font-family="Times,serif" font-size="14.00" style="">0:move_fox</text>
</g>
<!-- n1_1 -->
<g id="node13" class="node" pointer-events="visible" data-name="n1_1">

<ellipse fill="black" stroke="black" cx="307" cy="-621.2" rx="3.6" ry="3.6" style=""/>
</g>
<!-- 1&#45;&gt;n1_1 -->
<g id="edge11" class="edge" data-name="1-&gt;n1_1">

<path fill="none" stroke="black" d="M420.83,-691C397.47,-685.32 365.81,-675.42 341.48,-659.6 326.08,-649.59 312.94,-631.16 308.56,-624.6" style=""/>
<text text-anchor="middle" x="388.26" y="-647" font-family="Times,serif" font-size="14.00" style="">1:move_chicken</text>
</g>
<!-- n1_2 -->
<g id="node15" class="node" pointer-events="visible" data-name="n1_2">

<ellipse fill="black" stroke="black" cx="437" cy="-621.2" rx="3.6" ry="3.6" style=""/>
</g>
<!-- 1&#45;&gt;n1_2 -->
<g id="edge13" class="edge" data-name="1-&gt;n1_2">

<path fill="none" stroke="black" d="M445.01,-677.67C442.99,-671.93 441.04,-665.59 439.79,-659.6 437.14,-646.85 436.93,-631.2 436.96,-624.96" style=""/>
<text text-anchor="middle" x="478.1" y="-647" font-family="Times,serif" font-size="14.00" style="">2:move_none</text>
</g>
<!-- 11 -->
<g id="node12" class="node" pointer-events="visible" data-name="11">

<polygon fill="none" stroke="black" points="508.82,-564.6 445.18,-564.6 445.18,-523.4 508.82,-523.4 508.82,-564.6" style=""/>
<text text-anchor="middle" x="477" y="-548.2" font-family="Times,serif" font-size="14.00" style="">11</text>
<text text-anchor="middle" x="477" y="-531.4" font-family="Times,serif" font-size="14.00" style="">(1,0,1,1)</text>
</g>
<!-- n1_0&#45;&gt;11 -->
<g id="edge10" class="edge" data-name="n1_0-&gt;11">

<path fill="none" stroke="black" d="M510.67,-617.34C507.4,-610.32 498.68,-591.58 490.93,-574.93" style=""/>
<polygon fill="black" stroke="black" points="494.32,-573.92 486.93,-566.33 487.98,-576.88 494.32,-573.92" style=""/>
<text text-anchor="middle" x="505.5" y="-587" font-family="Times,serif" font-size="14.00" style="">1</text>
</g>
<!-- n11_0 -->
<g id="node38" class="node" pointer-events="visible" data-name="n11_0">

<ellipse fill="black" stroke="black" cx="530" cy="-466.8" rx="3.6" ry="3.6" style=""/>
</g>
<!-- 11&#45;&gt;n11_0 -->
<g id="edge43" class="edge" data-name="11-&gt;n11_0">

<path fill="none" stroke="black" d="M486.68,-522.91C492.28,-512.19 499.87,-499.05 508.24,-488.4 514.29,-480.71 523.19,-473.21 527.49,-469.76" style=""/>
<text text-anchor="middle" x="547.88" y="-492.6" font-family="Times,serif" font-size="14.00" style="">0:move_grain</text>
</g>
<!-- n11_1 -->
<g id="node39" class="node" pointer-events="visible" data-name="n11_1">

<ellipse fill="black" stroke="black" cx="650" cy="-466.8" rx="3.6" ry="3.6" style=""/>
</g>
<!-- 11&#45;&gt;n11_1 -->
<g id="edge45" class="edge" data-name="11-&gt;n11_1">

<path fill="none" stroke="black" d="M509.01,-534.57C531.28,-528.07 561.29,-518.03 586,-505.2 597.35,-499.31 598.42,-495.04 609.34,-488.4 622.87,-480.18 640.07,-472.23 646.96,-469.15" style=""/>
<text text-anchor="middle" x="643.83" y="-492.6" font-family="Times,serif" font-size="14.00" style="">1:move_fox</text>
</g>
<!-- n11_2 -->
<g id="node40" class="node" pointer-events="visible" data-name="n11_2">

<ellipse fill="black" stroke="black" cx="338" cy="-466.8" rx="3.6" ry="3.6" style=""/>
</g>
<!-- 11&#45;&gt;n11_2 -->
<g id="edge47" class="edge" data-name="11-&gt;n11_2">

<path fill="none" stroke="black" d="M444.95,-542.68C415,-540.57 371.18,-532.57 345.79,-505.2 336.59,-495.28 337.11,-477.42 337.7,-470.57" style=""/>
<text text-anchor="middle" x="384.1" y="-492.6" font-family="Times,serif" font-size="14.00" style="">2:move_none</text>
</g>
<!-- 13 -->
<g id="node14" class="node" pointer-events="visible" data-name="13">

<polygon fill="none" stroke="black" points="484.82,-873.4 421.18,-873.4 421.18,-832.2 484.82,-832.2 484.82,-873.4" style=""/>
<text text-anchor="middle" x="453" y="-857" font-family="Times,serif" font-size="14.00" style="">13</text>
<text text-anchor="middle" x="453" y="-840.2" font-family="Times,serif" font-size="14.00" style="">(1,1,0,1)</text>
</g>
<!-- n1_1&#45;&gt;13 -->
<g id="edge12" class="edge" data-name="n1_1-&gt;13">

<path fill="none" stroke="black" d="M307.6,-625.03C309.03,-631.43 312.95,-647.38 319,-659.6 349.94,-722.11 399.55,-787.11 428.94,-823.22" style=""/>
<polygon fill="black" stroke="black" points="425.94,-825.08 434.99,-830.59 431.35,-820.64 425.94,-825.08" style=""/>
<text text-anchor="middle" x="379.5" y="-741.4" font-family="Times,serif" font-size="14.00" style="">1</text>
</g>
<!-- n13_0 -->
<g id="node43" class="node" pointer-events="visible" data-name="n13_0">

<ellipse fill="black" stroke="black" cx="629" cy="-775.6" rx="3.6" ry="3.6" style=""/>
</g>
<!-- 13&#45;&gt;n13_0 -->
<g id="edge53" class="edge" data-name="13-&gt;n13_0">

<path fill="none" stroke="black" d="M485.12,-839.93C504.13,-832.75 528.59,-823.23 550,-814 580.1,-801.03 615.65,-783.32 626.02,-778.1" style=""/>
<text text-anchor="middle" x="623.88" y="-801.4" font-family="Times,serif" font-size="14.00" style="">0:move_grain</text>
</g>
<!-- n13_1 -->
<g id="node44" class="node" pointer-events="visible" data-name="n13_1">

<ellipse fill="black" stroke="black" cx="453" cy="-775.6" rx="3.6" ry="3.6" style=""/>
</g>
<!-- 13&#45;&gt;n13_1 -->
<g id="edge55" class="edge" data-name="13-&gt;n13_1">

<path fill="none" stroke="black" d="M453,-832.04C453,-813.59 453,-787.68 453,-779.32" style=""/>
<text text-anchor="middle" x="499.26" y="-801.4" font-family="Times,serif" font-size="14.00" style="">1:move_chicken</text>
</g>
<!-- n13_2 -->
<g id="node45" class="node" pointer-events="visible" data-name="n13_2">

<ellipse fill="black" stroke="black" cx="75" cy="-745.6" rx="3.6" ry="3.6" style=""/>
</g>
<!-- 13&#45;&gt;n13_2 -->
<g id="edge57" class="edge" data-name="13-&gt;n13_2">

<path fill="none" stroke="black" d="M421,-850.56C372.14,-847.89 276.54,-839.58 199.79,-814 147,-796.4 90.16,-757.35 77.56,-748.43" style=""/>
<text text-anchor="middle" x="238.1" y="-801.4" font-family="Times,serif" font-size="14.00" style="">2:move_none</text>
</g>
<!-- n1_2&#45;&gt;9 -->
<g id="edge14" class="edge" data-name="n1_2-&gt;9">

<path fill="none" stroke="black" d="M433.5,-619.25C409.99,-612.87 273.91,-575.92 202.99,-556.67" style=""/>
<polygon fill="black" stroke="black" points="204.22,-553.38 193.65,-554.14 202.38,-560.13 204.22,-553.38" style=""/>
<text text-anchor="middle" x="359.5" y="-587" font-family="Times,serif" font-size="14.00" style="">1</text>
</g>
<!-- 2 -->
<g id="node16" class="node" pointer-events="visible" data-name="2">

<polygon fill="none" stroke="black" points="629.82,-410.2 566.18,-410.2 566.18,-369 629.82,-369 629.82,-410.2" style=""/>
<text text-anchor="middle" x="598" y="-393.8" font-family="Times,serif" font-size="14.00" style="">2</text>
<text text-anchor="middle" x="598" y="-377" font-family="Times,serif" font-size="14.00" style="">(0,0,1,0)</text>
</g>
<!-- n2_0 -->
<g id="node17" class="node" pointer-events="visible" data-name="n2_0">

<ellipse fill="black" stroke="black" cx="500" cy="-312.4" rx="3.6" ry="3.6" style=""/>
</g>
<!-- 2&#45;&gt;n2_0 -->
<g id="edge15" class="edge" data-name="2-&gt;n2_0">

<path fill="none" stroke="black" d="M566.04,-383.55C545.83,-378.65 520.84,-369.13 506.24,-350.8 497.87,-340.3 498.88,-322.78 499.63,-316.1" style=""/>
<text text-anchor="middle" x="545.88" y="-338.2" font-family="Times,serif" font-size="14.00" style="">0:move_grain</text>
</g>
<!-- n2_1 -->
<g id="node18" class="node" pointer-events="visible" data-name="n2_1">

<ellipse fill="black" stroke="black" cx="644" cy="-312.4" rx="3.6" ry="3.6" style=""/>
</g>
<!-- 2&#45;&gt;n2_1 -->
<g id="edge17" class="edge" data-name="2-&gt;n2_1">

<path fill="none" stroke="black" d="M610.09,-368.84C621.37,-350.39 637.22,-324.48 642.34,-316.12" style=""/>
<text text-anchor="middle" x="677.26" y="-338.2" font-family="Times,serif" font-size="14.00" style="">1:move_chicken</text>
</g>
<!-- n2_2 -->
<g id="node20" class="node" pointer-events="visible" data-name="n2_2">

<ellipse fill="black" stroke="black" cx="802" cy="-312.4" rx="3.6" ry="3.6" style=""/>
</g>
<!-- 2&#45;&gt;n2_2 -->
<g id="edge19" class="edge" data-name="2-&gt;n2_2">

<path fill="none" stroke="black" d="M630.07,-381.04C656.73,-374.34 695.42,-363.64 728,-350.8 756.66,-339.5 789.11,-320.96 798.99,-315.18" style=""/>
<text text-anchor="middle" x="802.1" y="-338.2" font-family="Times,serif" font-size="14.00" style="">2:move_none</text>
</g>
<!-- n2_0&#45;&gt;11 -->
<g id="edge16" class="edge" data-name="n2_0-&gt;11">

<path fill="none" stroke="black" d="M499.34,-316.32C498.45,-320.3 496.9,-327.65 496,-334 487.08,-396.74 481.51,-470.69 478.86,-511.67" style=""/>
<polygon fill="black" stroke="black" points="475.37,-511.33 478.24,-521.53 482.36,-511.77 475.37,-511.33" style=""/>
<text text-anchor="middle" x="489.5" y="-432.6" font-family="Times,serif" font-size="14.00" style="">1</text>
</g>
<!-- 14 -->
<g id="node19" class="node" pointer-events="visible" data-name="14">

<polygon fill="none" stroke="black" points="712.82,-255.8 649.18,-255.8 649.18,-214.6 712.82,-214.6 712.82,-255.8" style=""/>
<text text-anchor="middle" x="681" y="-239.4" font-family="Times,serif" font-size="14.00" style="">14</text>
<text text-anchor="middle" x="681" y="-222.6" font-family="Times,serif" font-size="14.00" style="">(1,1,1,0)</text>
</g>
<!-- n2_1&#45;&gt;14 -->
<g id="edge18" class="edge" data-name="n2_1-&gt;14">

<path fill="none" stroke="black" d="M645.23,-308.9C648.53,-302.19 657.9,-283.15 666.22,-266.24" style=""/>
<polygon fill="black" stroke="black" points="669.26,-267.99 670.53,-257.47 662.98,-264.9 669.26,-267.99" style=""/>
<text text-anchor="middle" x="665.5" y="-278.2" font-family="Times,serif" font-size="14.00" style="">1</text>
</g>
<!-- n14_0 -->
<g id="node46" class="node" pointer-events="visible" data-name="n14_0">

<ellipse fill="black" stroke="black" cx="821" cy="-158" rx="3.6" ry="3.6" style=""/>
</g>
<!-- 14&#45;&gt;n14_0 -->
<g id="edge59" class="edge" data-name="14-&gt;n14_0">

<path fill="none" stroke="black" d="M713,-216.58C732.67,-205.81 758.41,-191.8 781.34,-179.6 795.04,-172.32 811.54,-163.84 818.1,-160.48" style=""/>
<text text-anchor="middle" x="815.83" y="-183.8" font-family="Times,serif" font-size="14.00" style="">0:move_fox</text>
</g>
<!-- n14_1 -->
<g id="node47" class="node" pointer-events="visible" data-name="n14_1">

<ellipse fill="black" stroke="black" cx="548" cy="-158" rx="3.6" ry="3.6" style=""/>
</g>
<!-- 14&#45;&gt;n14_1 -->
<g id="edge61" class="edge" data-name="14-&gt;n14_1">

<path fill="none" stroke="black" d="M648.74,-231.51C622.46,-227.7 585.99,-218.53 562.48,-196.4 552.13,-186.67 549.08,-168.7 548.27,-161.8" style=""/>
<text text-anchor="middle" x="609.26" y="-183.8" font-family="Times,serif" font-size="14.00" style="">1:move_chicken</text>
</g>
<!-- n14_2 -->
<g id="node48" class="node" pointer-events="visible" data-name="n14_2">

<ellipse fill="black" stroke="black" cx="619" cy="-158" rx="3.6" ry="3.6" style=""/>
</g>
<!-- 14&#45;&gt;n14_2 -->
<g id="edge63" class="edge" data-name="14-&gt;n14_2">

<path fill="none" stroke="black" d="M676.61,-214.15C673.31,-202.92 667.81,-189.27 659,-179.6 648.48,-168.05 629.98,-161.98 622.39,-159.87" style=""/>
<text text-anchor="middle" x="708.1" y="-183.8" font-family="Times,serif" font-size="14.00" style="">2:move_none</text>
</g>
<!-- n2_2&#45;&gt;10 -->
<g id="edge20" class="edge" data-name="n2_2-&gt;10">

<path fill="none" stroke="black" d="M805.17,-309.83C818.72,-303.13 872.73,-276.41 911.79,-257.08" style=""/>
<polygon fill="black" stroke="black" points="913.1,-260.34 920.51,-252.77 909.99,-254.07 913.1,-260.34" style=""/>
<text text-anchor="middle" x="877.5" y="-278.2" font-family="Times,serif" font-size="14.00" style="">1</text>
</g>
<!-- 3 -->
<g id="node21" class="node" pointer-events="visible" data-name="3">

<polygon fill="none" stroke="black" points="357.82,-410.2 294.18,-410.2 294.18,-369 357.82,-369 357.82,-410.2" style=""/>
<text text-anchor="middle" x="326" y="-393.8" font-family="Times,serif" font-size="14.00" style="">3</text>
<text text-anchor="middle" x="326" y="-377" font-family="Times,serif" font-size="14.00" style="">(0,0,1,1)</text>
</g>
<!-- n3_0 -->
<g id="node22" class="node" pointer-events="visible" data-name="n3_0">

<ellipse fill="black" stroke="black" cx="215" cy="-312.4" rx="3.6" ry="3.6" style=""/>
</g>
<!-- 3&#45;&gt;n3_0 -->
<g id="edge21" class="edge" data-name="3-&gt;n3_0">

<path fill="none" stroke="black" d="M293.7,-386.89C268.29,-383.66 234.29,-374.78 216.48,-350.8 208.57,-340.16 212.33,-322.73 214.18,-316.09" style=""/>
<text text-anchor="middle" x="263.26" y="-338.2" font-family="Times,serif" font-size="14.00" style="">0:move_chicken</text>
</g>
<!-- n3_1 -->
<g id="node24" class="node" pointer-events="visible" data-name="n3_1">

<ellipse fill="black" stroke="black" cx="424" cy="-312.4" rx="3.6" ry="3.6" style=""/>
</g>
<!-- 3&#45;&gt;n3_1 -->
<g id="edge23" class="edge" data-name="3-&gt;n3_1">

<path fill="none" stroke="black" d="M332.91,-368.65C337.88,-357.02 345.68,-342.93 356.79,-334 376.76,-317.94 409.19,-314.37 420.2,-313.6" style=""/>
<text text-anchor="middle" x="395.1" y="-338.2" font-family="Times,serif" font-size="14.00" style="">1:move_none</text>
</g>
<!-- 15 -->
<g id="node23" class="node" pointer-events="visible" data-name="15">

<polygon fill="none" stroke="black" points="246.82,-255.8 183.18,-255.8 183.18,-214.6 246.82,-214.6 246.82,-255.8" style=""/>
<text text-anchor="middle" x="215" y="-239.4" font-family="Times,serif" font-size="14.00" style="">15</text>
<text text-anchor="middle" x="215" y="-222.6" font-family="Times,serif" font-size="14.00" style="">(1,1,1,1)</text>
</g>
<!-- n3_0&#45;&gt;15 -->
<g id="edge22" class="edge" data-name="n3_0-&gt;15">

<path fill="none" stroke="black" d="M215,-308.54C215,-301.72 215,-283.83 215,-267.55" style=""/>
<polygon fill="black" stroke="black" points="218.5,-267.67 215,-257.67 211.5,-267.67 218.5,-267.67" style=""/>
<text text-anchor="middle" x="218.5" y="-278.2" font-family="Times,serif" font-size="14.00" style="">1</text>
</g>
<!-- n15_0 -->
<g id="node49" class="node" pointer-events="visible" data-name="n15_0">

<ellipse fill="black" stroke="black" cx="263" cy="-158" rx="3.6" ry="3.6" style=""/>
</g>
<!-- 15&#45;&gt;n15_0 -->
<g id="edge65" class="edge" data-name="15-&gt;n15_0">

<path fill="none" stroke="black" d="M227.61,-214.44C239.39,-195.99 255.93,-170.08 261.27,-161.72" style=""/>
<text text-anchor="middle" x="287.88" y="-183.8" font-family="Times,serif" font-size="14.00" style="">0:move_grain</text>
</g>
<!-- n15_1 -->
<g id="node50" class="node" pointer-events="visible" data-name="n15_1">

<ellipse fill="black" stroke="black" cx="163" cy="-158" rx="3.6" ry="3.6" style=""/>
</g>
<!-- 15&#45;&gt;n15_1 -->
<g id="edge67" class="edge" data-name="15-&gt;n15_1">

<path fill="none" stroke="black" d="M184.83,-214.46C178.87,-209.26 173.26,-203.17 169.34,-196.4 162.76,-184.99 162.59,-168.58 162.83,-161.95" style=""/>
<text text-anchor="middle" x="203.83" y="-183.8" font-family="Times,serif" font-size="14.00" style="">1:move_fox</text>
</g>
<!-- n15_2 -->
<g id="node51" class="node" pointer-events="visible" data-name="n15_2">

<ellipse fill="black" stroke="black" cx="416" cy="-158" rx="3.6" ry="3.6" style=""/>
</g>
<!-- 15&#45;&gt;n15_2 -->
<g id="edge69" class="edge" data-name="15-&gt;n15_2">

<path fill="none" stroke="black" d="M247.02,-225.29C270.6,-218.37 303.25,-208.01 331,-196.4 345.99,-190.13 348.67,-186.31 363.48,-179.6 381.68,-171.35 404.22,-163.17 412.63,-160.18" style=""/>
<text text-anchor="middle" x="410.26" y="-183.8" font-family="Times,serif" font-size="14.00" style="">2:move_chicken</text>
</g>
<!-- n15_3 -->
<g id="node52" class="node" pointer-events="visible" data-name="n15_3">

<ellipse fill="black" stroke="black" cx="71" cy="-158" rx="3.6" ry="3.6" style=""/>
</g>
<!-- 15&#45;&gt;n15_3 -->
<g id="edge71" class="edge" data-name="15-&gt;n15_3">

<path fill="none" stroke="black" d="M182.84,-233.08C153.44,-230.36 110.58,-221.9 83.79,-196.4 73.65,-186.75 71.55,-168.73 71.11,-161.81" style=""/>
<text text-anchor="middle" x="122.1" y="-183.8" font-family="Times,serif" font-size="14.00" style="">3:move_none</text>
</g>
<!-- n3_1&#45;&gt;11 -->
<g id="edge24" class="edge" data-name="n3_1-&gt;11">

<path fill="none" stroke="black" d="M425.34,-316C427.28,-319.84 430.86,-327.31 433,-334 452.75,-395.71 466.04,-470.56 472.48,-511.85" style=""/>
<polygon fill="black" stroke="black" points="469,-512.2 473.97,-521.56 475.92,-511.15 469,-512.2" style=""/>
<text text-anchor="middle" x="464.5" y="-432.6" font-family="Times,serif" font-size="14.00" style="">1</text>
</g>
<!-- 4 -->
<g id="node25" class="node" pointer-events="visible" data-name="4">

<polygon fill="none" stroke="black" points="782.82,-1027.8 719.18,-1027.8 719.18,-986.6 782.82,-986.6 782.82,-1027.8" style=""/>
<text text-anchor="middle" x="751" y="-1011.4" font-family="Times,serif" font-size="14.00" style="">4</text>
<text text-anchor="middle" x="751" y="-994.6" font-family="Times,serif" font-size="14.00" style="">(0,1,0,0)</text>
</g>
<!-- n4_0 -->
<g id="node26" class="node" pointer-events="visible" data-name="n4_0">

<ellipse fill="black" stroke="black" cx="505" cy="-930" rx="3.6" ry="3.6" style=""/>
</g>
<!-- 4&#45;&gt;n4_0 -->
<g id="edge25" class="edge" data-name="4-&gt;n4_0">

<path fill="none" stroke="black" d="M718.77,-1000.73C685.36,-994.61 631.87,-983.53 587.24,-968.4 555.15,-957.52 518.67,-938.38 508.05,-932.66" style=""/>
<text text-anchor="middle" x="626.88" y="-955.8" font-family="Times,serif" font-size="14.00" style="">0:move_grain</text>
</g>
<!-- n4_1 -->
<g id="node27" class="node" pointer-events="visible" data-name="n4_1">

<ellipse fill="black" stroke="black" cx="739" cy="-900" rx="3.6" ry="3.6" style=""/>
</g>
<!-- 4&#45;&gt;n4_1 -->
<g id="edge27" class="edge" data-name="4-&gt;n4_1">

<path fill="none" stroke="black" d="M744.39,-986.4C742.76,-980.66 741.23,-974.34 740.34,-968.4 736.67,-943.63 738.2,-913.17 738.8,-903.85" style=""/>
<text text-anchor="middle" x="774.83" y="-955.8" font-family="Times,serif" font-size="14.00" style="">1:move_fox</text>
</g>
<!-- n4_2 -->
<g id="node28" class="node" pointer-events="visible" data-name="n4_2">

<ellipse fill="black" stroke="black" cx="902" cy="-930" rx="3.6" ry="3.6" style=""/>
</g>
<!-- 4&#45;&gt;n4_2 -->
<g id="edge29" class="edge" data-name="4-&gt;n4_2">

<path fill="none" stroke="black" d="M783.31,-993.12C798.72,-986.43 817.21,-977.73 833,-968.4 843.84,-962 844.92,-957.93 855.79,-951.6 871.28,-942.58 891.43,-934.86 898.97,-932.09" style=""/>
<text text-anchor="middle" x="894.1" y="-955.8" font-family="Times,serif" font-size="14.00" style="">2:move_none</text>
</g>
<!-- n4_0&#45;&gt;13 -->
<g id="edge26" class="edge" data-name="n4_0-&gt;13">

<path fill="none" stroke="black" d="M503.27,-926.5C498.54,-919.66 484.96,-900.02 473.11,-882.88" style=""/>
<polygon fill="black" stroke="black" points="476.2,-881.19 467.63,-874.96 470.44,-885.17 476.2,-881.19" style=""/>
<text text-anchor="middle" x="493.5" y="-895.8" font-family="Times,serif" font-size="14.00" style="">1</text>
</g>
<!-- n4_1&#45;&gt;14 -->
<g id="edge28" class="edge" data-name="n4_1-&gt;14">

<path fill="none" stroke="black" d="M739,-896.13C739,-884.77 739,-841.89 739,-806.6 739,-806.6 739,-806.6 739,-311.4 739,-293.28 728.31,-276.85 716.1,-264.01" style=""/>
<polygon fill="black" stroke="black" points="718.66,-261.61 709.05,-257.16 713.78,-266.64 718.66,-261.61" style=""/>
<text text-anchor="middle" x="742.5" y="-587" font-family="Times,serif" font-size="14.00" style="">1</text>
</g>
<!-- n4_2&#45;&gt;12 -->
<g id="edge30" class="edge" data-name="n4_2-&gt;12">

<path fill="none" stroke="black" d="M905.22,-932.06C911.71,-934.39 926.23,-940.64 932,-951.6 967.91,-1019.82 948.89,-1060.11 904,-1122.8 897.46,-1131.93 888,-1139.11 878.2,-1144.66" style=""/>
<polygon fill="black" stroke="black" points="876.66,-1141.51 869.33,-1149.16 879.83,-1147.76 876.66,-1141.51" style=""/>
<text text-anchor="middle" x="950.5" y="-1050.2" font-family="Times,serif" font-size="14.00" style="">1</text>
</g>
<!-- 5 -->
<g id="node29" class="node" pointer-events="visible" data-name="5">

<polygon fill="none" stroke="black" points="188.82,-101.4 125.18,-101.4 125.18,-60.2 188.82,-60.2 188.82,-101.4" style=""/>
<text text-anchor="middle" x="157" y="-85" font-family="Times,serif" font-size="14.00" style="">5</text>
<text text-anchor="middle" x="157" y="-68.2" font-family="Times,serif" font-size="14.00" style="">(0,1,0,1)</text>
</g>
<!-- n5_0 -->
<g id="node30" class="node" pointer-events="visible" data-name="n5_0">

<ellipse fill="black" stroke="black" cx="173" cy="-3.6" rx="3.6" ry="3.6" style=""/>
</g>
<!-- 5&#45;&gt;n5_0 -->
<g id="edge31" class="edge" data-name="5-&gt;n5_0">

<path fill="none" stroke="black" d="M154,-59.83C153.16,-49.27 153.34,-36.23 157.11,-25.2 159.8,-17.34 166.83,-10.13 170.57,-6.71" style=""/>
<text text-anchor="middle" x="163.44" y="-29.4" font-family="Times,serif" font-size="14.00" style="">0:</text>
</g>
<!-- n5_0&#45;&gt;5 -->
<g id="edge32" class="edge" data-name="n5_0-&gt;5">

<path fill="none" stroke="black" d="M172.78,-7.35C172.24,-13.56 170.71,-29.18 168,-42 167.51,-44.3 166.96,-46.66 166.37,-49.03" style=""/>
<polygon fill="black" stroke="black" points="163.05,-47.9 163.79,-58.47 169.8,-49.75 163.05,-47.9" style=""/>
<text text-anchor="middle" x="174.5" y="-29.4" font-family="Times,serif" font-size="14.00" style="">1</text>
</g>
<!-- 6 -->
<g id="node31" class="node" pointer-events="visible" data-name="6">

<polygon fill="none" stroke="black" points="299.82,-101.4 236.18,-101.4 236.18,-60.2 299.82,-60.2 299.82,-101.4" style=""/>
<text text-anchor="middle" x="268" y="-85" font-family="Times,serif" font-size="14.00" style="">6</text>
<text text-anchor="middle" x="268" y="-68.2" font-family="Times,serif" font-size="14.00" style="">(0,1,1,0)</text>
</g>
<!-- n6_0 -->
<g id="node32" class="node" pointer-events="visible" data-name="n6_0">

<ellipse fill="black" stroke="black" cx="252" cy="-3.6" rx="3.6" ry="3.6" style=""/>
</g>
<!-- 6&#45;&gt;n6_0 -->
<g id="edge33" class="edge" data-name="6-&gt;n6_0">

<path fill="none" stroke="black" d="M246.85,-59.91C242.47,-54.56 238.47,-48.45 236.11,-42 233.55,-34.99 233.7,-32.27 236.11,-25.2 238.79,-17.33 245.83,-10.13 249.57,-6.71" style=""/>
<text text-anchor="middle" x="242.44" y="-29.4" font-family="Times,serif" font-size="14.00" style="">0:</text>
</g>
<!-- n6_0&#45;&gt;6 -->
<g id="edge34" class="edge" data-name="n6_0-&gt;6">

<path fill="none" stroke="black" d="M252.58,-7.32C254.02,-14.11 257.93,-32.49 261.46,-49.04" style=""/>
<polygon fill="black" stroke="black" points="257.98,-49.51 263.48,-58.56 264.82,-48.05 257.98,-49.51" style=""/>
<text text-anchor="middle" x="263.5" y="-29.4" font-family="Times,serif" font-size="14.00" style="">1</text>
</g>
<!-- 7 -->
<g id="node33" class="node" pointer-events="visible" data-name="7">

<polygon fill="none" stroke="black" points="102.82,-101.4 39.18,-101.4 39.18,-60.2 102.82,-60.2 102.82,-101.4" style=""/>
<text text-anchor="middle" x="71" y="-85" font-family="Times,serif" font-size="14.00" style="">7</text>
<text text-anchor="middle" x="71" y="-68.2" font-family="Times,serif" font-size="14.00" style="">(0,1,1,1)</text>
</g>
<!-- n7_0 -->
<g id="node34" class="node" pointer-events="visible" data-name="n7_0">

<ellipse fill="black" stroke="black" cx="71" cy="-3.6" rx="3.6" ry="3.6" style=""/>
</g>
<!-- 7&#45;&gt;n7_0 -->
<g id="edge35" class="edge" data-name="7-&gt;n7_0">

<path fill="none" stroke="black" d="M59.3,-59.95C54.65,-49.53 51.22,-36.6 55.11,-25.2 57.79,-17.33 64.83,-10.13 68.57,-6.71" style=""/>
<text text-anchor="middle" x="61.44" y="-29.4" font-family="Times,serif" font-size="14.00" style="">0:</text>
</g>
<!-- n7_0&#45;&gt;7 -->
<g id="edge36" class="edge" data-name="n7_0-&gt;7">

<path fill="none" stroke="black" d="M71,-7.32C71,-14.04 71,-32.14 71,-48.56" style=""/>
<polygon fill="black" stroke="black" points="67.5,-48.53 71,-58.53 74.5,-48.53 67.5,-48.53" style=""/>
<text text-anchor="middle" x="74.5" y="-29.4" font-family="Times,serif" font-size="14.00" style="">1</text>
</g>
<!-- n8_0&#45;&gt;8 -->
<g id="edge38" class="edge" data-name="n8_0-&gt;8">

<path fill="none" stroke="black" d="M1024.21,-1088.12C1022.22,-1094.91 1016.84,-1113.29 1012,-1129.84" style=""/>
<polygon fill="black" stroke="black" points="1008.65,-1128.81 1009.21,-1139.39 1015.37,-1130.77 1008.65,-1128.81" style=""/>
<text text-anchor="middle" x="1022.5" y="-1110.2" font-family="Times,serif" font-size="14.00" style="">1</text>
</g>
<!-- n9_0&#45;&gt;9 -->
<g id="edge40" class="edge" data-name="n9_0-&gt;9">

<path fill="none" stroke="black" d="M160,-470.52C160,-477.24 160,-495.34 160,-511.76" style=""/>
<polygon fill="black" stroke="black" points="156.5,-511.73 160,-521.73 163.5,-511.73 156.5,-511.73" style=""/>
<text text-anchor="middle" x="163.5" y="-492.6" font-family="Times,serif" font-size="14.00" style="">1</text>
</g>
<!-- n10_0&#45;&gt;10 -->
<g id="edge42" class="edge" data-name="n10_0-&gt;10">

<path fill="none" stroke="black" d="M954,-161.72C954,-168.44 954,-186.54 954,-202.96" style=""/>
<polygon fill="black" stroke="black" points="950.5,-202.93 954,-212.93 957.5,-202.93 950.5,-202.93" style=""/>
<text text-anchor="middle" x="957.5" y="-183.8" font-family="Times,serif" font-size="14.00" style="">1</text>
</g>
<!-- n11_0&#45;&gt;2 -->
<g id="edge44" class="edge" data-name="n11_0-&gt;2">

<path fill="none" stroke="black" d="M531.96,-463.63C537.95,-457.01 556.56,-436.43 572.5,-418.8" style=""/>
<polygon fill="black" stroke="black" points="574.92,-421.34 579.03,-411.58 569.73,-416.65 574.92,-421.34" style=""/>
<text text-anchor="middle" x="565.5" y="-432.6" font-family="Times,serif" font-size="14.00" style="">1</text>
</g>
<!-- n11_1&#45;&gt;1 -->
<g id="edge46" class="edge" data-name="n11_1-&gt;1">

<path fill="none" stroke="black" d="M653.28,-469.12C659.3,-471.74 671.98,-478.25 677,-488.4 680.31,-495.09 678.88,-497.97 677,-505.2 657.25,-581.23 652.81,-611.13 591,-659.6 563.91,-680.84 525.7,-690.17 496.35,-694.25" style=""/>
<polygon fill="black" stroke="black" points="496.19,-690.74 486.69,-695.43 497.04,-697.69 496.19,-690.74" style=""/>
<text text-anchor="middle" x="658.5" y="-587" font-family="Times,serif" font-size="14.00" style="">1</text>
</g>
<!-- n11_2&#45;&gt;3 -->
<g id="edge48" class="edge" data-name="n11_2-&gt;3">

<path fill="none" stroke="black" d="M337.54,-462.94C336.45,-456.06 333.55,-437.88 330.93,-421.48" style=""/>
<polygon fill="black" stroke="black" points="334.46,-421.38 329.42,-412.06 327.54,-422.48 334.46,-421.38" style=""/>
<text text-anchor="middle" x="338.5" y="-432.6" font-family="Times,serif" font-size="14.00" style="">1</text>
</g>
<!-- n12_0&#45;&gt;0 -->
<g id="edge50" class="edge" data-name="n12_0-&gt;0">

<path fill="none" stroke="black" d="M704.88,-1088.18C704.67,-1094.47 704.57,-1110.23 708,-1122.8 725.72,-1187.82 764.26,-1257.14 787.38,-1295.24" style=""/>
<polygon fill="black" stroke="black" points="784.17,-1296.71 792.39,-1303.39 790.13,-1293.04 784.17,-1296.71" style=""/>
<text text-anchor="middle" x="748.5" y="-1204.6" font-family="Times,serif" font-size="14.00" style="">1</text>
</g>
<!-- n12_1&#45;&gt;4 -->
<g id="edge52" class="edge" data-name="n12_1-&gt;4">

<path fill="none" stroke="black" d="M810.94,-1080.9C805.25,-1074 788.81,-1054.06 774.58,-1036.81" style=""/>
<polygon fill="black" stroke="black" points="777.44,-1034.77 768.38,-1029.28 772.04,-1039.22 777.44,-1034.77" style=""/>
<text text-anchor="middle" x="798.5" y="-1050.2" font-family="Times,serif" font-size="14.00" style="">1</text>
</g>
<!-- n13_0&#45;&gt;4 -->
<g id="edge54" class="edge" data-name="n13_0-&gt;4">

<path fill="none" stroke="black" d="M632.47,-777.72C639.54,-780.15 655.7,-786.59 665,-797.2 719.18,-859.02 703.42,-892.5 735,-968.4 735.98,-970.75 737,-973.18 738.02,-975.63" style=""/>
<polygon fill="black" stroke="black" points="734.79,-976.96 741.9,-984.81 741.24,-974.24 734.79,-976.96" style=""/>
<text text-anchor="middle" x="719.5" y="-895.8" font-family="Times,serif" font-size="14.00" style="">1</text>
</g>
<!-- n13_1&#45;&gt;1 -->
<g id="edge56" class="edge" data-name="n13_1-&gt;1">

<path fill="none" stroke="black" d="M453,-771.74C453,-764.92 453,-747.03 453,-730.75" style=""/>
<polygon fill="black" stroke="black" points="456.5,-730.87 453,-720.87 449.5,-730.87 456.5,-730.87" style=""/>
<text text-anchor="middle" x="456.5" y="-741.4" font-family="Times,serif" font-size="14.00" style="">1</text>
</g>
<!-- n13_2&#45;&gt;5 -->
<g id="edge58" class="edge" data-name="n13_2-&gt;5">

<path fill="none" stroke="black" d="M73.22,-742.17C65.82,-731.88 38,-690.56 38,-652.2 38,-652.2 38,-652.2 38,-157 38,-115.92 74.12,-117.5 112,-101.6 112.93,-101.21 113.87,-100.81 114.82,-100.41" style=""/>
<polygon fill="black" stroke="black" points="115.9,-103.76 123.71,-96.59 113.14,-97.32 115.9,-103.76" style=""/>
<text text-anchor="middle" x="41.5" y="-432.6" font-family="Times,serif" font-size="14.00" style="">1</text>
</g>
<!-- n14_0&#45;&gt;4 -->
<g id="edge60" class="edge" data-name="n14_0-&gt;4">

<path fill="none" stroke="black" d="M824.39,-160.28C830.64,-162.84 843.77,-169.26 849,-179.6 871.31,-223.7 851.05,-241.42 849,-290.8 844.33,-403.18 828,-430.52 828,-543 828,-652.2 828,-652.2 828,-652.2 828,-793.01 878.48,-846.49 808,-968.4 804.17,-975.03 798.65,-980.72 792.53,-985.52" style=""/>
<polygon fill="black" stroke="black" points="790.75,-982.49 784.52,-991.06 794.74,-988.25 790.75,-982.49" style=""/>
<text text-anchor="middle" x="831.5" y="-587" font-family="Times,serif" font-size="14.00" style="">1</text>
</g>
<!-- n14_1&#45;&gt;2 -->
<g id="edge62" class="edge" data-name="n14_1-&gt;2">

<path fill="none" stroke="black" d="M547.87,-161.74C547.61,-167.94 547.21,-183.53 549,-196.4 549.28,-198.43 576.28,-303.89 590.08,-357.71" style=""/>
<polygon fill="black" stroke="black" points="586.64,-358.38 592.51,-367.19 593.42,-356.64 586.64,-358.38" style=""/>
<text text-anchor="middle" x="576.5" y="-278.2" font-family="Times,serif" font-size="14.00" style="">1</text>
</g>
<!-- n14_2&#45;&gt;6 -->
<g id="edge64" class="edge" data-name="n14_2-&gt;6">

<path fill="none" stroke="black" d="M615.53,-156.26C587.55,-150.26 397.9,-109.63 311.15,-91.04" style=""/>
<polygon fill="black" stroke="black" points="312.1,-87.67 301.59,-89 310.64,-94.51 312.1,-87.67" style=""/>
<text text-anchor="middle" x="519.5" y="-123.8" font-family="Times,serif" font-size="14.00" style="">1</text>
</g>
<!-- n15_0&#45;&gt;6 -->
<g id="edge66" class="edge" data-name="n15_0-&gt;6">

<path fill="none" stroke="black" d="M263.19,-154.14C263.64,-147.32 264.83,-129.43 265.92,-113.15" style=""/>
<polygon fill="black" stroke="black" points="269.4,-113.48 266.57,-103.27 262.42,-113.02 269.4,-113.48" style=""/>
<text text-anchor="middle" x="269.5" y="-123.8" font-family="Times,serif" font-size="14.00" style="">1</text>
</g>
<!-- n15_1&#45;&gt;5 -->
<g id="edge68" class="edge" data-name="n15_1-&gt;5">

<path fill="none" stroke="black" d="M162.77,-154.14C162.23,-147.32 160.8,-129.43 159.5,-113.15" style=""/>
<polygon fill="black" stroke="black" points="163,-112.96 158.71,-103.27 156.02,-113.52 163,-112.96" style=""/>
<text text-anchor="middle" x="165.5" y="-123.8" font-family="Times,serif" font-size="14.00" style="">1</text>
</g>
<!-- n15_2&#45;&gt;3 -->
<g id="edge70" class="edge" data-name="n15_2-&gt;3">

<path fill="none" stroke="black" d="M419.74,-159.61C428.03,-161.19 447.87,-166.26 456,-179.6 459.89,-185.97 458.58,-189.39 456,-196.4 428.3,-271.74 375.3,-262.4 339,-334 335.33,-341.24 332.67,-349.55 330.75,-357.47" style=""/>
<polygon fill="black" stroke="black" points="327.35,-356.63 328.75,-367.13 334.21,-358.05 327.35,-356.63" style=""/>
<text text-anchor="middle" x="394.5" y="-278.2" font-family="Times,serif" font-size="14.00" style="">1</text>
</g>
<!-- n15_3&#45;&gt;7 -->
<g id="edge72" class="edge" data-name="n15_3-&gt;7">

<path fill="none" stroke="black" d="M71,-154.14C71,-147.32 71,-129.43 71,-113.15" style=""/>
<polygon fill="black" stroke="black" points="74.5,-113.27 71,-103.27 67.5,-113.27 74.5,-113.27" style=""/>
<text text-anchor="middle" x="74.5" y="-123.8" font-family="Times,serif" font-size="14.00" style="">1</text>
</g>
</g>
</svg>