<?xml version="1.0" standalone="no"?>
<svg xmlns="http://www.w3.org/2000/svg" xmlns:xlink="http://www.w3.org/1999/xlink" width="132pt" height="710pt" viewBox="0.00 0.00 132.44 710.40">
<g id="graph0" class="graph" transform="translate(2.3170871272646423,553.5635546395647) scale(0.6597539553864473)" data-name="M">

<polygon fill="white" stroke="none" points="-4,4 -4,-706.4 128.44,-706.4 128.44,4 -4,4" style=""/>
<!-- 0 -->
<g id="node1" class="node" pointer-events="visible" data-name="0">

<polygon fill="none" stroke="black" points="63.74,-702.2 0.09,-702.2 0.09,-661 63.74,-661 63.74,-702.2" style=""/>
<text text-anchor="middle" x="31.91" y="-685.8" font-family="Times,serif" font-size="14.00" style="">0</text>
<text text-anchor="middle" x="31.91" y="-669" font-family="Times,serif" font-size="14.00" style="">(0,0,0,0)</text>
</g>
<!-- 5 -->
<g id="node2" class="node" pointer-events="visible" data-name="5">

<polygon fill="none" stroke="black" points="63.74,-607.8 0.09,-607.8 0.09,-566.6 63.74,-566.6 63.74,-607.8" style=""/>
<text text-anchor="middle" x="31.91" y="-591.4" font-family="Times,serif" font-size="14.00" style="">5</text>
<text text-anchor="middle" x="31.91" y="-574.6" font-family="Times,serif" font-size="14.00" style="">(1,1,0,0)</text>
</g>
<!-- 0&#45;&gt;5 -->
<g id="edge1" class="edge" data-name="0-&gt;5">

<path fill="none" stroke="black" d="M31.91,-660.55C31.91,-648.56 31.91,-633.07 31.91,-619.5" style=""/>
<polygon fill="black" stroke="black" points="35.41,-619.72 31.91,-609.72 28.41,-619.72 35.41,-619.72" style=""/>
<text text-anchor="middle" x="78.17" y="-630.2" font-family="Times,serif" font-size="14.00" style="">1:move_chicken</text>
</g>
<!-- 3 -->
<g id="node7" class="node" pointer-events="visible" data-name="3">

<polygon fill="none" stroke="black" points="63.74,-513.4 0.09,-513.4 0.09,-472.2 63.74,-472.2 63.74,-513.4" style=""/>
<text text-anchor="middle" x="31.91" y="-497" font-family="Times,serif" font-size="14.00" style="">3</text>
<text text-anchor="middle" x="31.91" y="-480.2" font-family="Times,serif" font-size="14.00" style="">(0,1,0,0)</text>
</g>
<!-- 5&#45;&gt;3 -->
<g id="edge6" class="edge" data-name="5-&gt;3">

<path fill="none" stroke="black" d="M31.91,-566.15C31.91,-554.16 31.91,-538.67 31.91,-525.1" style=""/>
<polygon fill="black" stroke="black" points="35.41,-525.32 31.91,-515.32 28.41,-525.32 35.41,-525.32" style=""/>
<text text-anchor="middle" x="70.02" y="-535.8" font-family="Times,serif" font-size="14.00" style="">1:move_none</text>
</g>
<!-- 1 -->
<g id="node3" class="node" pointer-events="visible" data-name="1">

<polygon fill="none" stroke="black" points="63.74,-324.6 0.09,-324.6 0.09,-283.4 63.74,-283.4 63.74,-324.6" style=""/>
<text text-anchor="middle" x="31.91" y="-308.2" font-family="Times,serif" font-size="14.00" style="">1</text>
<text text-anchor="middle" x="31.91" y="-291.4" font-family="Times,serif" font-size="14.00" style="">(0,0,1,0)</text>
</g>
<!-- 4 -->
<g id="node4" class="node" pointer-events="visible" data-name="4">

<polygon fill="none" stroke="black" points="63.74,-230.2 0.09,-230.2 0.09,-189 63.74,-189 63.74,-230.2" style=""/>
<text text-anchor="middle" x="31.91" y="-213.8" font-family="Times,serif" font-size="14.00" style="">4</text>
<text text-anchor="middle" x="31.91" y="-197" font-family="Times,serif" font-size="14.00" style="">(1,0,1,1)</text>
</g>
<!-- 1&#45;&gt;4 -->
<g id="edge2" class="edge" data-name="1-&gt;4">

<path fill="none" stroke="black" d="M31.91,-282.95C31.91,-270.96 31.91,-255.47 31.91,-241.9" style=""/>
<polygon fill="black" stroke="black" points="35.41,-242.12 31.91,-232.12 28.41,-242.12 35.41,-242.12" style=""/>
<text text-anchor="middle" x="70.79" y="-252.6" font-family="Times,serif" font-size="14.00" style="">1:move_grain</text>
</g>
<!-- 2 -->
<g id="node5" class="node" pointer-events="visible" data-name="2">

<polygon fill="none" stroke="black" points="63.74,-135.8 0.09,-135.8 0.09,-94.6 63.74,-94.6 63.74,-135.8" style=""/>
<text text-anchor="middle" x="31.91" y="-119.4" font-family="Times,serif" font-size="14.00" style="">2</text>
<text text-anchor="middle" x="31.91" y="-102.6" font-family="Times,serif" font-size="14.00" style="">(0,0,1,1)</text>
</g>
<!-- 4&#45;&gt;2 -->
<g id="edge5" class="edge" data-name="4-&gt;2">

<path fill="none" stroke="black" d="M31.91,-188.55C31.91,-176.56 31.91,-161.07 31.91,-147.5" style=""/>
<polygon fill="black" stroke="black" points="35.41,-147.72 31.91,-137.72 28.41,-147.72 35.41,-147.72" style=""/>
<text text-anchor="middle" x="70.02" y="-158.2" font-family="Times,serif" font-size="14.00" style="">1:move_none</text>
</g>
<!-- 7 -->
<g id="node6" class="node" pointer-events="visible" data-name="7">

<polygon fill="none" stroke="black" points="63.74,-41.4 0.09,-41.4 0.09,-0.2 63.74,-0.2 63.74,-41.4" style=""/>
<text text-anchor="middle" x="31.91" y="-25" font-family="Times,serif" font-size="14.00" style="">7</text>
<text text-anchor="middle" x="31.91" y="-8.2" font-family="Times,serif" font-size="14.00" style="">(1,1,1,1)</text>
</g>
<!-- 2&#45;&gt;7 -->
<g id="edge3" class="edge" data-name="2-&gt;7">

<path fill="none" stroke="black" d="M31.91,-94.15C31.91,-82.16 31.91,-66.67 31.91,-53.1" style=""/>
<polygon fill="black" stroke="black" points="35.41,-53.32 31.91,-43.32 28.41,-53.32 35.41,-53.32" style=""/>
<text text-anchor="middle" x="78.17" y="-63.8" font-family="Times,serif" font-size="14.00" style="">1:move_chicken</text>
</g>
<!-- 7&#45;&gt;7 -->
<g id="edge8" class="edge" data-name="7-&gt;7">

<path fill="none" stroke="black" d="M64.08,-29.64C74.02,-29.46 81.82,-26.52 81.82,-20.8 81.82,-17.58 79.35,-15.25 75.42,-13.78" style=""/>
<polygon fill="black" stroke="black" points="76,-10.33 65.57,-12.2 74.89,-17.24 76,-10.33" style=""/>
<text text-anchor="middle" x="85.32" y="-16.6" font-family="Times,serif" font-size="14.00" style="">1</text>
</g>
<!-- 6 -->
<g id="node8" class="node" pointer-events="visible" data-name="6">

<polygon fill="none" stroke="black" points="63.74,-419 0.09,-419 0.09,-377.8 63.74,-377.8 63.74,-419" style=""/>
<text text-anchor="middle" x="31.91" y="-402.6" font-family="Times,serif" font-size="14.00" style="">6</text>
<text text-anchor="middle" x="31.91" y="-385.8" font-family="Times,serif" font-size="14.00" style="">(1,1,1,0)</text>
</g>
<!-- 3&#45;&gt;6 -->
<g id="edge4" class="edge" data-name="3-&gt;6">

<path fill="none" stroke="black" d="M31.91,-471.75C31.91,-459.76 31.91,-444.27 31.91,-430.7" style=""/>
<polygon fill="black" stroke="black" points="35.41,-430.92 31.91,-420.92 28.41,-430.92 35.41,-430.92" style=""/>
<text text-anchor="middle" x="65.74" y="-441.4" font-family="Times,serif" font-size="14.00" style="">1:move_fox</text>
</g>
<!-- 6&#45;&gt;1 -->
<g id="edge7" class="edge" data-name="6-&gt;1">

<path fill="none" stroke="black" d="M31.91,-377.35C31.91,-365.36 31.91,-349.87 31.91,-336.3" style=""/>
<polygon fill="black" stroke="black" points="35.41,-336.52 31.91,-326.52 28.41,-336.52 35.41,-336.52" style=""/>
<text text-anchor="middle" x="78.17" y="-347" font-family="Times,serif" font-size="14.00" style="">1:move_chicken</text>
</g>
</g>
</svg>